<?xml version="1.0" encoding="iso-8859-1"?>
<!-- Generator: Adobe Illustrator 18.0.0, SVG Export Plug-In . SVG Version: 6.00 Build 0)  -->
<!DOCTYPE svg PUBLIC "-//W3C//DTD SVG 1.1//EN" "http://www.w3.org/Graphics/SVG/1.1/DTD/svg11.dtd">
<svg xmlns="http://www.w3.org/2000/svg" xmlns:xlink="http://www.w3.org/1999/xlink" version="1.1" id="Capa_1" x="0px" y="0px" viewBox="0 0 296.152 296.152" style="enable-background:new 0 0 296.152 296.152;" xml:space="preserve" width="512px" height="512px">
<g>
	<path d="M94.074,115.34c1.477,0,2.832-0.808,3.524-2.11c0.696-1.297,0.624-2.876-0.19-4.104l-25.857-38.96   c-0.741-1.116-1.993-1.789-3.335-1.789c-1.34,0-2.593,0.673-3.334,1.789l-25.862,38.96c-0.814,1.229-0.887,2.808-0.189,4.104   c0.696,1.302,2.046,2.11,3.522,2.11h5.899h9.981v85.88l-46.063,79.09c-2.773,4.768-1.16,10.88,3.602,13.653   c1.584,0.921,3.31,1.355,5.016,1.355c3.438,0,6.779-1.775,8.638-4.958l47.418-81.42c0.886-1.525,1.353-3.26,1.353-5.025V115.34   h9.983H94.074z" fill="#0049A3"/>
	<path d="M173.934,115.34c1.478,0,2.833-0.808,3.525-2.11c0.697-1.297,0.624-2.876-0.191-4.104l-25.858-38.96   c-0.741-1.116-1.993-1.789-3.334-1.789c-1.34,0-2.593,0.673-3.334,1.789l-25.863,38.96c-0.813,1.229-0.887,2.808-0.189,4.104   c0.696,1.302,2.046,2.11,3.523,2.11h5.898h9.982v85.88l-46.063,79.09c-2.773,4.768-1.159,10.88,3.604,13.653   c1.583,0.921,3.309,1.355,5.015,1.355c3.438,0,6.78-1.775,8.637-4.958l47.418-81.42c0.887-1.525,1.354-3.26,1.354-5.025V115.34   h9.983H173.934z" fill="#0049A3"/>
	<path d="M253.795,115.34c1.478,0,2.832-0.808,3.524-2.11c0.696-1.297,0.624-2.876-0.19-4.104l-25.858-38.96   c-0.741-1.116-1.994-1.789-3.334-1.789c-1.341,0-2.594,0.673-3.335,1.789l-25.862,38.96c-0.814,1.229-0.887,2.808-0.191,4.104   c0.697,1.302,2.047,2.11,3.525,2.11h5.896h9.983v85.88l-46.062,79.09c-2.773,4.768-1.161,10.88,3.603,13.653   c1.583,0.921,3.309,1.355,5.015,1.355c3.437,0,6.78-1.775,8.638-4.958l47.417-81.42c0.886-1.525,1.354-3.26,1.354-5.025V115.34   h9.983H253.795z" fill="#0049A3"/>
	<path d="M127.75,198.427v-72.743h-5.537c-5.295,0-10.139-2.9-12.632-7.553c-0.69-1.284-1.164-2.643-1.437-4.029   c-0.273,1.385-0.746,2.741-1.435,4.023l0,0c-2.499,4.663-7.337,7.559-12.636,7.559h-5.532v78.231c0,3.492-0.909,6.932-2.626,9.983   h32.824L127.75,198.427z" fill="#0049A3"/>
	<path d="M207.61,198.427v-72.743h-5.536c-5.297,0-10.141-2.9-12.634-7.553c-0.689-1.284-1.163-2.643-1.436-4.03   c-0.271,1.385-0.744,2.742-1.434,4.024l0,0c-2.5,4.664-7.338,7.559-12.637,7.559h-5.531v78.231c0,3.491-0.91,6.931-2.626,9.983   H198.6L207.61,198.427z" fill="#0049A3"/>
	<path d="M240.054,0.833H56.099C25.166,0.833,0,25.999,0,56.932V157.8c0,25.421,17.017,46.895,40.241,53.761l7.648-13.134v-72.743   h-5.537c-5.296,0-10.14-2.9-12.632-7.553c-2.508-4.661-2.25-10.301,0.681-14.727l25.862-38.959   c2.665-4.016,7.134-6.413,11.952-6.413c4.819,0,9.288,2.397,11.953,6.413l25.861,38.965c1.054,1.592,1.758,3.344,2.114,5.15   c0.357-1.808,1.061-3.562,2.117-5.156l25.861-38.959c2.666-4.016,7.134-6.413,11.953-6.413c4.818,0,9.288,2.397,11.952,6.413   l25.861,38.965c1.056,1.592,1.758,3.344,2.116,5.151c0.356-1.809,1.061-3.563,2.116-5.157l25.861-38.959   c2.665-4.016,7.133-6.413,11.953-6.413c4.819,0,9.288,2.397,11.952,6.413l25.861,38.965c2.925,4.414,3.186,10.052,0.681,14.715   c-2.499,4.663-7.338,7.559-12.636,7.559h-5.533v78.231c0,3.367-0.851,6.687-2.451,9.657c28.234-2.892,50.342-26.785,50.342-55.773   V56.932C296.152,25.999,270.986,0.833,240.054,0.833z" fill="#0049A3"/>
</g>
<g>
</g>
<g>
</g>
<g>
</g>
<g>
</g>
<g>
</g>
<g>
</g>
<g>
</g>
<g>
</g>
<g>
</g>
<g>
</g>
<g>
</g>
<g>
</g>
<g>
</g>
<g>
</g>
<g>
</g>
</svg>
