<?xml version="1.0" encoding="iso-8859-1"?>
<!-- Generator: Adobe Illustrator 18.1.1, SVG Export Plug-In . SVG Version: 6.00 Build 0)  -->
<svg xmlns="http://www.w3.org/2000/svg" xmlns:xlink="http://www.w3.org/1999/xlink" version="1.1" id="Capa_1" x="0px" y="0px" viewBox="0 0 196.901 196.901" style="enable-background:new 0 0 196.901 196.901;" xml:space="preserve" width="512px" height="512px">
<g>
	<path d="M196.901,117.631c-0.054-13.324-5.776-24.792-16.743-30.288   c-3.109-22.334-15.484-38.582-30.67-38.528l-70.922,0.269C63.38,49.149,51.118,65.481,48.182,87.844   c-10.931,5.579-16.564,17.089-16.516,30.413c0.036,10.245,3.437,19.38,9.977,25.568l0.078,21.129l26.29-0.107l-0.048-12.841   l92.904-0.352l0.054,12.829l26.278-0.095l-0.078-21.129C193.613,137.029,196.937,127.864,196.901,117.631z M78.596,56.972   l70.922-0.274c9.995-0.036,18.778,11.779,22.101,27.794c-1.629-0.292-3.359-0.453-5.143-0.537c0-0.042,0.012-0.072,0.012-0.107   c-0.036-9.314-7.632-16.839-16.928-16.803s-16.839,7.626-16.803,16.934l-68.738,0.269c-2.596,0.012-5.03,0.245-7.321,0.68   C59.895,68.894,68.601,57.014,78.596,56.972z M161.231,83.876l-23.223,0.095c-0.024-6.396,5.161-11.629,11.564-11.653   S161.207,77.474,161.231,83.876z M60.259,129.153c-6.074,0.024-11.027-4.875-11.051-10.967   c-0.024-6.092,4.887-11.045,10.961-11.063c6.086-0.024,11.039,4.887,11.063,10.979C71.25,124.195,66.34,129.135,60.259,129.153z    M82.283,112.213l63.959-0.245c1.45-0.006,2.625,1.158,2.631,2.613c0.006,1.456-1.164,2.625-2.613,2.631l-63.959,0.245   c-1.456,0.006-2.631-1.164-2.637-2.613C79.658,113.401,80.827,112.219,82.283,112.213z M146.302,126.868l-63.965,0.245   c-1.45,0.006-2.631-1.164-2.637-2.613c0-1.456,1.164-2.631,2.619-2.637l63.965-0.245c1.45-0.006,2.625,1.158,2.631,2.613   C148.921,125.674,147.758,126.862,146.302,126.868z M168.403,128.741c-6.092,0.024-11.045-4.869-11.063-10.967   c-0.018-6.092,4.893-11.039,10.979-11.063c6.08-0.024,11.033,4.881,11.057,10.979S174.471,128.717,168.403,128.741z M35.014,49.985   v-1.921c0-11.122-7.041-16.117-14.01-16.117h-2.488c-6.969,0-14.01,4.994-14.01,16.117v1.921H0v34.071h39.513V49.985   C39.513,49.985,35.014,49.985,35.014,49.985z M8.658,48.063c0-7.363,3.771-11.952,9.851-11.952h2.488   c6.08,0,9.851,4.589,9.851,11.952v1.921H8.658V48.063z" fill="#0049A3"/>
</g>
<g>
</g>
<g>
</g>
<g>
</g>
<g>
</g>
<g>
</g>
<g>
</g>
<g>
</g>
<g>
</g>
<g>
</g>
<g>
</g>
<g>
</g>
<g>
</g>
<g>
</g>
<g>
</g>
<g>
</g>
</svg>
