<?xml version="1.0" encoding="iso-8859-1"?>
<!-- Generator: Adobe Illustrator 18.1.1, SVG Export Plug-In . SVG Version: 6.00 Build 0)  -->
<svg xmlns="http://www.w3.org/2000/svg" xmlns:xlink="http://www.w3.org/1999/xlink" version="1.1" id="Capa_1" x="0px" y="0px" viewBox="0 0 179.006 179.006" style="enable-background:new 0 0 179.006 179.006;" xml:space="preserve" width="512px" height="512px">
<g>
	<g>
		<path d="M65.516,28.56C27.65,36.335,0,60.662,0,89.506s27.656,53.171,65.51,60.94V28.56H65.516z" fill="#0049A3"/>
		<path d="M173.355,83.849h-48.833c-3.121,0-5.651,2.53-5.651,5.651s2.53,5.657,5.651,5.657h48.833    c3.121,0,5.651-2.536,5.651-5.651C179.006,86.391,176.476,83.849,173.355,83.849z" fill="#0049A3"/>
		<path d="M124.523,49.588h48.833c3.121,0,5.651-2.53,5.651-5.651s-2.53-5.651-5.651-5.651h-48.833    c-3.121,0-5.651,2.53-5.651,5.651S121.402,49.588,124.523,49.588z" fill="#0049A3"/>
		<path d="M91.454,42.081V25.923c-6.987,0-13.76,0.591-20.287,1.623v123.908    c6.534,1.038,13.3,1.629,20.287,1.629v-16.164c9.44-1.516,16.904-22.131,16.904-47.419    C108.358,64.23,100.888,43.603,91.454,42.081z" fill="#0049A3"/>
		<path d="M173.355,129.418h-48.833c-3.121,0-5.651,2.53-5.651,5.651s2.53,5.651,5.651,5.651h48.833    c3.121,0,5.651-2.53,5.651-5.651S176.476,129.418,173.355,129.418z" fill="#0049A3"/>
	</g>
</g>
<g>
</g>
<g>
</g>
<g>
</g>
<g>
</g>
<g>
</g>
<g>
</g>
<g>
</g>
<g>
</g>
<g>
</g>
<g>
</g>
<g>
</g>
<g>
</g>
<g>
</g>
<g>
</g>
<g>
</g>
</svg>
