<?xml version="1.0" encoding="iso-8859-1"?>
<svg xmlns="http://www.w3.org/2000/svg" xmlns:xlink="http://www.w3.org/1999/xlink" version="1.1" viewBox="0 0 263.045 263.045" enable-background="new 0 0 263.045 263.045" width="512px" height="512px">
  <path d="m263.044,149.907l-41.013-41.013-26.163,26.163 6.364,6.364-4.95,4.95 5.657,5.657-14.909,14.909c-0.441-0.03-0.881-0.065-1.327-0.065-0.464,0-0.921,0.035-1.379,0.067l-88.777-88.777c0.032-0.458 0.067-0.916 0.067-1.379 0-0.724-0.049-1.44-0.127-2.149l14.529-14.529 5.657,5.657 4.95-4.95 6.364,6.364 26.163-26.163-41.013-41.013-26.163,26.163 5.657,5.657-4.95,4.95 5.657,5.657-15.022,15.022c-0.363-0.02-0.724-0.053-1.09-0.053-5.18,0-10.048,2.017-13.709,5.679-4.055,4.054-5.913,9.472-5.618,14.792l-15.472,15.471-5.657-5.657-4.95,4.95-5.657-5.657-26.163,26.164 41.012,41.013 26.163-26.163-6.364-6.364 4.95-4.95-5.657-5.657 14.971-14.971c0.71,0.078 1.426,0.127 2.15,0.127 0.633,0 1.261-0.032 1.883-0.092l88.307,88.307c-0.102,1.062-0.1,2.129-0.028,3.193l-15.36,15.36-5.657-5.657-4.95,4.95-6.364-6.364-26.163,26.163 41.012,41.013 26.163-26.163-5.657-5.657 4.95-4.95-5.656-5.656 15.063-15.064c0.639,0.063 1.284,0.095 1.934,0.095 5.179,0 10.047-2.017 13.709-5.679s5.68-8.53 5.68-13.709c0-0.65-0.032-1.296-0.095-1.935l14.621-14.621 5.657,5.657 4.95-4.95 5.657,5.657 26.163-26.164z" fill="#0049A3"/>
</svg>
