<?xml version="1.0" encoding="iso-8859-1"?>
<!-- Generator: Adobe Illustrator 18.0.0, SVG Export Plug-In . SVG Version: 6.00 Build 0)  -->
<!DOCTYPE svg PUBLIC "-//W3C//DTD SVG 1.1//EN" "http://www.w3.org/Graphics/SVG/1.1/DTD/svg11.dtd">
<svg xmlns="http://www.w3.org/2000/svg" xmlns:xlink="http://www.w3.org/1999/xlink" version="1.1" id="Capa_1" x="0px" y="0px" viewBox="0 0 296.964 296.964" style="enable-background:new 0 0 296.964 296.964;" xml:space="preserve" width="512px" height="512px">
<g id="XMLID_120_">
	<path id="XMLID_124_" d="M173.111,234.978c13.868,5.896,30.536,3.254,41.832-8.039c6.962-6.963,18.285-6.963,25.25,0   c7.417,7.422,17.161,11.13,26.906,11.13c9.745,0,19.489-3.708,26.906-11.125c3.945-3.945,3.945-10.337,0-14.281   c-3.944-3.946-10.336-3.946-14.281,0c-6.954,6.948-18.276,6.962-25.251-0.007c-14.38-14.38-39.434-14.38-53.815,0   c-3.529,3.531-8.176,5.253-12.82,5.199C184.434,224.74,179.423,230.701,173.111,234.978z" fill="#0049A3"/>
	<path id="XMLID_123_" d="M56.793,226.933c6.735-6.73,18.493-6.735,25.249,0.006c11.285,11.298,27.953,13.936,41.82,8.039   c-6.311-4.277-11.322-10.238-14.726-17.123c-4.636,0.049-9.282-1.672-12.813-5.204c-14.391-14.375-39.462-14.361-53.813,0.005   c-6.964,6.965-18.307,6.96-25.271-0.005c-3.946-3.935-10.338-3.938-14.282,0.005c-3.944,3.951-3.944,10.343,0,14.288   C17.823,241.784,41.968,241.773,56.793,226.933z" fill="#0049A3"/>
	<path id="XMLID_122_" d="M148.482,222.322c13.157,0,23.84-10.666,23.84-23.829c0-6.947-3.029-13.142-7.763-17.498l-0.927-23.687   l-1.528-39.044h14.912c5.583,0,10.101-4.521,10.101-10.1c0-5.578-4.518-10.101-10.101-10.101h-15.701l-0.395-10.1h16.097   c5.583,0,10.101-4.523,10.101-10.101c0-5.578-4.518-10.1-10.101-10.1h-16.887l-0.393-10.1h17.279   c5.583,0,10.101-4.522,10.101-10.101c0-5.576-4.518-10.099-10.101-10.099h-18.068l-0.365-9.258   c-0.217-5.208-4.409-9.496-9.705-9.704c-5.584-0.218-10.279,4.127-10.495,9.704l-5.051,129.102l-0.927,23.687   c-4.733,4.36-7.753,10.556-7.753,17.498C124.652,211.656,135.324,222.322,148.482,222.322z" fill="#0049A3"/>
	<path id="XMLID_121_" d="M279.724,253.063c-6.954,6.943-18.276,6.967-25.251-0.006c-14.38-14.38-39.434-14.38-53.815,0   c-6.953,6.954-18.285,6.964-25.258,0c-6.649-6.652-15.191-10.149-23.898-10.84c-2.014-0.158-4.016-0.158-6.018,0   c-8.72,0.69-17.25,4.191-23.9,10.84c-6.963,6.944-18.297,6.968-25.26-0.005c-14.391-14.375-39.462-14.362-53.813,0.005   c-6.964,6.964-18.307,6.959-25.271-0.005c-3.946-3.936-10.338-3.94-14.282,0.005c-3.944,3.95-3.944,10.341,0,14.288   c14.864,14.843,39.01,14.823,53.835-0.011c6.735-6.727,18.493-6.742,25.249,0.005c14.834,14.845,38.99,14.834,53.824,0   c6.954-6.947,18.275-6.958,25.25,0c14.835,14.845,38.99,14.834,53.826,0c6.962-6.965,18.285-6.965,25.25,0   c7.417,7.422,17.161,11.13,26.906,11.13c9.745,0,19.489-3.708,26.906-11.124c3.945-3.947,3.945-10.338,0-14.282   C290.061,249.117,283.669,249.117,279.724,253.063z" fill="#0049A3"/>
</g>
<g>
</g>
<g>
</g>
<g>
</g>
<g>
</g>
<g>
</g>
<g>
</g>
<g>
</g>
<g>
</g>
<g>
</g>
<g>
</g>
<g>
</g>
<g>
</g>
<g>
</g>
<g>
</g>
<g>
</g>
</svg>
