<?xml version="1.0" encoding="iso-8859-1"?>
<!-- Generator: Adobe Illustrator 17.1.0, SVG Export Plug-In . SVG Version: 6.00 Build 0)  -->
<!DOCTYPE svg PUBLIC "-//W3C//DTD SVG 1.1//EN" "http://www.w3.org/Graphics/SVG/1.1/DTD/svg11.dtd">
<svg xmlns="http://www.w3.org/2000/svg" xmlns:xlink="http://www.w3.org/1999/xlink" version="1.1" id="Capa_1" x="0px" y="0px" viewBox="0 0 244.154 244.154" style="enable-background:new 0 0 244.154 244.154;" xml:space="preserve" width="512px" height="512px">
<path d="M235.58,78.759c-0.906,0-1.837,0.129-2.766,0.385L222.3,82.04l-10.915-26.588c-3.092-7.533-12.233-13.662-20.377-13.662  H88.846c-8.281,0-16.614,4.492-18.969,10.228c-0.449,1.093-0.682,2.296-0.749,3.555c-4.727-1.693-9.813-2.622-15.113-2.622  c-24.782,0-44.943,20.161-44.943,44.943v11.752C3.788,111.58,0,116.644,0,122.589v65.982c0,7.605,6.188,13.793,13.793,13.793h80.443  c7.605,0,13.793-6.188,13.793-13.793v-13.179h94.093v13.191c0,6.105,4.966,11.07,11.07,11.07h14.457  c6.105,0,11.07-4.966,11.07-11.07v-52.826c0-7.565-2.337-19.414-5.211-26.414l-1.763-4.293h1.338c6.105,0,11.07-4.966,11.07-11.07  v-6.197C244.154,82.554,240.549,78.759,235.58,78.759z M67.013,152.436c-0.456,3.498-4.782,10.257-5.173,13.762  c-0.795,7.135-0.647,12.999-7.825,12.999c-7.178,0-7.03-5.864-7.825-12.999c-0.391-3.505-4.717-10.264-5.172-13.762  c-0.926-7.118,5.819-12.997,12.997-12.997C61.192,139.439,67.938,145.317,67.013,152.436z M87.6,108.796H20.431V97.895  c0-18.518,15.065-33.584,33.584-33.584c18.519,0,33.585,15.066,33.585,33.584V108.796z M81.016,61.991  c0.155-0.813,0.354-1.602,0.649-2.317l0.352-0.855c1.85-4.506,7.349-8.192,12.22-8.192h91.381c4.871,0,10.37,3.687,12.22,8.192  l16.512,40.221c1.85,4.506-0.622,8.192-5.493,8.192H101.135c-0.756,0-1.476-0.068-2.176-0.165v-9.172  C98.959,83.238,91.905,70.201,81.016,61.991z M217.414,149.915c0,2.436-1.993,4.428-4.428,4.428h-31.368  c-2.436,0-4.428-1.992-4.428-4.428V134.86c0-2.436,1.992-4.428,4.428-4.428h31.368c2.435,0,4.428,1.992,4.428,4.428V149.915z" fill="#0049A3"/>
<g>
</g>
<g>
</g>
<g>
</g>
<g>
</g>
<g>
</g>
<g>
</g>
<g>
</g>
<g>
</g>
<g>
</g>
<g>
</g>
<g>
</g>
<g>
</g>
<g>
</g>
<g>
</g>
<g>
</g>
</svg>
