<?xml version="1.0" encoding="iso-8859-1"?>
<!-- Generator: Adobe Illustrator 18.0.0, SVG Export Plug-In . SVG Version: 6.00 Build 0)  -->
<!DOCTYPE svg PUBLIC "-//W3C//DTD SVG 1.1//EN" "http://www.w3.org/Graphics/SVG/1.1/DTD/svg11.dtd">
<svg xmlns="http://www.w3.org/2000/svg" xmlns:xlink="http://www.w3.org/1999/xlink" version="1.1" id="Capa_1" x="0px" y="0px" viewBox="0 0 236.91 236.91" style="enable-background:new 0 0 236.91 236.91;" xml:space="preserve" width="512px" height="512px">
<g>
	<path d="M202.842,90.894c-0.193-0.249-0.398-0.492-0.626-0.721c-0.229-0.228-0.472-0.433-0.72-0.626   c-21.391-21.053-50.716-34.066-83.028-34.069c-0.004,0-0.008-0.001-0.008-0.001c-0.009,0-0.013,0.001-0.017,0.001   C86.13,55.481,56.805,68.494,35.415,89.547c-0.249,0.193-0.492,0.397-0.72,0.626c-0.229,0.229-0.433,0.472-0.626,0.721   C13.013,112.287,0,141.617,0,173.933c0,4.142,3.357,7.5,7.5,7.5h221.91c4.143,0,7.5-3.358,7.5-7.5   C236.91,141.617,223.897,112.287,202.842,90.894z M118.455,147.692c-7.354,0-13.997,3.029-18.761,7.902l-4.723-2.054   c5.711-6.568,14.118-10.732,23.484-10.732c14.577,0,26.84,10.074,30.206,23.625h-5.059   C140.375,155.596,130.34,147.692,118.455,147.692z M158.882,166.433c-3.537-19.106-20.313-33.625-40.427-33.625   c-13.492,0-25.486,6.532-32.989,16.598l-42.477-18.475c-3.8-1.654-8.218,0.088-9.869,3.886s0.088,8.217,3.887,9.869l41.843,18.2   c-0.325,1.163-0.599,2.346-0.822,3.548H15.269c1.647-22.895,10.783-43.746,24.958-60.122l5.117,5.117   c1.465,1.464,3.385,2.197,5.304,2.197s3.839-0.732,5.304-2.197c2.929-2.929,2.929-7.678,0-10.606l-5.118-5.118   c16.375-14.174,37.227-23.308,60.122-24.956v8.541c0,4.142,3.357,7.5,7.5,7.5s7.5-3.358,7.5-7.5v-8.541   c22.895,1.648,43.746,10.782,60.122,24.956l-5.118,5.118c-2.929,2.929-2.929,7.678,0,10.606c1.465,1.464,3.385,2.197,5.304,2.197   s3.839-0.732,5.304-2.197l5.117-5.117c14.175,16.376,23.311,37.227,24.958,60.122H158.882z" fill="#0049A3"/>
</g>
<g>
</g>
<g>
</g>
<g>
</g>
<g>
</g>
<g>
</g>
<g>
</g>
<g>
</g>
<g>
</g>
<g>
</g>
<g>
</g>
<g>
</g>
<g>
</g>
<g>
</g>
<g>
</g>
<g>
</g>
</svg>
