<?xml version="1.0" encoding="iso-8859-1"?>
<!-- Generator: Adobe Illustrator 18.0.0, SVG Export Plug-In . SVG Version: 6.00 Build 0)  -->
<!DOCTYPE svg PUBLIC "-//W3C//DTD SVG 1.1//EN" "http://www.w3.org/Graphics/SVG/1.1/DTD/svg11.dtd">
<svg xmlns="http://www.w3.org/2000/svg" xmlns:xlink="http://www.w3.org/1999/xlink" version="1.1" id="Capa_1" x="0px" y="0px" viewBox="0 0 204.619 204.619" style="enable-background:new 0 0 204.619 204.619;" xml:space="preserve" width="512px" height="512px">
<g>
	<path d="M102.228,49.831c13.737,0,24.914-11.176,24.914-24.914C127.142,11.178,115.965,0,102.228,0S77.314,11.178,77.314,24.917   C77.314,38.655,88.49,49.831,102.228,49.831z M102.228,15c5.467,0,9.914,4.449,9.914,9.917c0,5.466-4.447,9.914-9.914,9.914   c-5.467,0-9.914-4.447-9.914-9.914C92.314,19.449,96.761,15,102.228,15z" fill="#0049A3"/>
	<path d="M147.616,123.845h-12.127V81.658c0-5.883-2.097-11.285-5.581-15.499l23.142-24.124c2.867-2.989,2.77-7.737-0.22-10.604   c-2.989-2.868-7.737-2.769-10.605,0.22l-25.282,26.354c-1.863-0.458-3.809-0.706-5.812-0.706H93.466   c-13.431,0-24.357,10.927-24.357,24.358v26.212l-17.539,18.283c-2.08,2.168-2.666,5.37-1.486,8.134   c1.179,2.764,3.894,4.558,6.898,4.558h90.635c4.143,0,7.5-3.358,7.5-7.5C155.116,127.203,151.759,123.845,147.616,123.845z    M120.489,81.658v42.187H84.108v-9.944l35.233-36.728C120.072,78.506,120.489,80.034,120.489,81.658z M84.108,81.658   c0-5.16,4.197-9.358,9.357-9.358h9.766L84.108,92.234V81.658z" fill="#0049A3"/>
	<path d="M70.399,148.109c-4.143,0-7.5,3.358-7.5,7.5v41.51c0,4.142,3.357,7.5,7.5,7.5c4.143,0,7.5-3.358,7.5-7.5v-41.51   C77.899,151.467,74.542,148.109,70.399,148.109z" fill="#0049A3"/>
	<path d="M134.239,148.109c-4.143,0-7.5,3.358-7.5,7.5v41.51c0,4.142,3.357,7.5,7.5,7.5c4.143,0,7.5-3.358,7.5-7.5v-41.51   C141.739,151.467,138.382,148.109,134.239,148.109z" fill="#0049A3"/>
</g>
<g>
</g>
<g>
</g>
<g>
</g>
<g>
</g>
<g>
</g>
<g>
</g>
<g>
</g>
<g>
</g>
<g>
</g>
<g>
</g>
<g>
</g>
<g>
</g>
<g>
</g>
<g>
</g>
<g>
</g>
</svg>
