<?xml version="1.0" encoding="iso-8859-1"?>
<!-- Generator: Adobe Illustrator 18.0.0, SVG Export Plug-In . SVG Version: 6.00 Build 0)  -->
<!DOCTYPE svg PUBLIC "-//W3C//DTD SVG 1.1//EN" "http://www.w3.org/Graphics/SVG/1.1/DTD/svg11.dtd">
<svg xmlns="http://www.w3.org/2000/svg" xmlns:xlink="http://www.w3.org/1999/xlink" version="1.1" id="Capa_1" x="0px" y="0px" viewBox="0 0 205.914 205.914" style="enable-background:new 0 0 205.914 205.914;" xml:space="preserve" width="512px" height="512px">
<path d="M198.414,15.52c-17.416,0-34.016,3.825-47.692,10.859c-13.703-7.035-30.327-10.859-47.767-10.859  c-17.438,0-34.061,3.824-47.764,10.859C41.516,19.345,24.915,15.52,7.5,15.52c-4.143,0-7.5,3.358-7.5,7.5s3.357,7.5,7.5,7.5  c11.888,0,23.146,2.123,32.846,5.771c-11.125,9.629-17.22,21.527-17.368,34.232c-0.005,0.111-0.017,0.22-0.017,0.332v87.376  c0,17.734,14.428,32.163,32.162,32.163c17.731,0,32.159-14.428,32.162-32.163V70.855c0-0.044-0.006-0.086-0.007-0.13  c-0.041-12.773-6.11-24.742-17.256-34.421c9.727-3.657,21.014-5.784,32.933-5.784c11.92,0,23.208,2.127,32.936,5.785  c-11.184,9.712-17.26,21.73-17.26,34.551v87.376c0,17.734,14.428,32.163,32.162,32.163c17.733,0,32.16-14.428,32.16-32.163V70.855  c0-0.112-0.012-0.222-0.017-0.332c-0.148-12.705-6.243-24.603-17.368-34.232c9.699-3.648,20.958-5.771,32.846-5.771  c4.143,0,7.5-3.358,7.5-7.5S202.557,15.52,198.414,15.52z M72.283,70.855c0,0.013,0.002,0.025,0.002,0.039v87.336  c-0.001,9.464-7.7,17.164-17.162,17.164c-9.463,0-17.162-7.699-17.162-17.163V70.996c0-10.318,6.586-19.883,17.225-27.121  C65.749,51.083,72.283,60.595,72.283,70.855z M167.953,70.996v87.235c0,9.463-7.698,17.163-17.16,17.163  c-9.463,0-17.162-7.699-17.162-17.163V70.855c0-10.26,6.533-19.772,17.097-26.98C161.367,51.114,167.953,60.678,167.953,70.996z" fill="#0049A3"/>
<g>
</g>
<g>
</g>
<g>
</g>
<g>
</g>
<g>
</g>
<g>
</g>
<g>
</g>
<g>
</g>
<g>
</g>
<g>
</g>
<g>
</g>
<g>
</g>
<g>
</g>
<g>
</g>
<g>
</g>
</svg>
