<?xml version="1.0" encoding="iso-8859-1"?>
<!-- Generator: Adobe Illustrator 17.1.0, SVG Export Plug-In . SVG Version: 6.00 Build 0)  -->
<!DOCTYPE svg PUBLIC "-//W3C//DTD SVG 1.1//EN" "http://www.w3.org/Graphics/SVG/1.1/DTD/svg11.dtd">
<svg xmlns="http://www.w3.org/2000/svg" xmlns:xlink="http://www.w3.org/1999/xlink" version="1.1" id="Capa_1" x="0px" y="0px" viewBox="0 0 374.413 374.413" style="enable-background:new 0 0 374.413 374.413;" xml:space="preserve" width="512px" height="512px">
<path d="M160.324,245.714c-38.796,32.637-84.045,59.819-134.49,80.791c-1.129,0.469-2.3,0.692-3.451,0.692  c-3.528,0-6.876-2.087-8.314-5.547c-1.908-4.59,0.266-9.857,4.855-11.766c1.243-0.517,2.488-1.04,3.726-1.565  c0.097-0.369,0.219-0.737,0.366-1.1l33.634-82.897c10.352-25.508,21.27-43.559,34.358-56.81  c17.28-17.494,38.646-26.364,63.502-26.364h30.258c4.971,0,9,4.029,9,9s-4.029,9-9,9h-30.256c-36.439,0-60.719,21.515-81.183,71.942  l-26.972,66.476c85.214-41.192,153.4-102.377,189.541-170.875c2.318-4.397,7.762-6.081,12.16-3.76  c4.396,2.319,6.079,7.764,3.76,12.16c-2.984,5.657-6.159,11.254-9.521,16.791c14.221,7.91,26.415,20.122,37.11,37.123  c2.646,4.208,1.382,9.764-2.826,12.411c-4.207,2.646-9.764,1.382-12.41-2.826c-9.298-14.78-19.692-25.144-31.662-31.539  C213.315,195.115,189.145,221.468,160.324,245.714z M121.639,55.181C121.639,24.754,146.393,0,176.818,0  c30.425,0,55.178,24.754,55.178,55.181c0,30.426-24.753,55.18-55.178,55.18C146.393,110.36,121.639,85.607,121.639,55.181z   M139.639,55.181c0,20.501,16.679,37.18,37.18,37.18c20.5,0,37.178-16.679,37.178-37.18c0-20.501-16.678-37.181-37.178-37.181  C156.317,18,139.639,34.679,139.639,55.181z M159.28,311.586c-0.781-4.908-5.385-8.254-10.303-7.473  c-4.909,0.782-8.255,5.395-7.473,10.304c3.386,21.266,12.904,40.995,27.524,57.054c1.776,1.951,4.212,2.941,6.658,2.941  c2.162,0,4.331-0.775,6.056-2.345c3.676-3.346,3.942-9.039,0.597-12.714C170.088,345.896,162.113,329.378,159.28,311.586z   M360.917,279.692c-3.477-21.204-12.956-40.916-27.413-57.002c-3.324-3.696-9.014-4-12.71-0.678  c-3.697,3.322-4.001,9.013-0.678,12.71c12.152,13.522,20.119,30.08,23.037,47.882c0.724,4.412,4.541,7.545,8.871,7.545  c0.483,0,0.974-0.039,1.467-0.12C358.396,289.225,361.721,284.597,360.917,279.692z M317.863,262.055  c19.209,36.634,5.035,82.066-31.597,101.276c-11.088,5.814-22.985,8.571-34.714,8.571c-27.022,0-53.165-14.622-66.563-40.166  c-19.209-36.632-5.036-82.064,31.594-101.276c0.001,0,0.001,0,0.001,0C253.217,211.25,298.65,225.422,317.863,262.055z   M222.941,301.671c-0.744-4.415-0.444-8.974,0.927-13.372c2.297-7.361,7.322-13.387,14.15-16.969c0.001,0,0.001,0,0.001,0  c11.313-5.933,24.81-3.589,33.52,4.854l25.573-13.412c-16.456-22.057-47.039-29.55-72.167-16.372  c-25.13,13.18-36.354,42.596-27.565,68.675L222.941,301.671z M261.052,291.85c-2.784-5.307-9.364-7.36-14.672-4.579  c-2.571,1.349-4.464,3.617-5.328,6.389c-0.864,2.771-0.598,5.712,0.75,8.283c2.784,5.307,9.366,7.359,14.676,4.577  C261.781,303.737,263.834,297.155,261.052,291.85z M305.473,278.713L279.9,292.125c1.996,11.965-3.749,24.4-15.063,30.335  c-11.316,5.933-24.814,3.59-33.523-4.854l-25.574,13.411c16.456,22.06,47.037,29.552,72.168,16.374  C303.039,334.211,314.264,304.794,305.473,278.713z" fill="#0049A3"/>
<g>
</g>
<g>
</g>
<g>
</g>
<g>
</g>
<g>
</g>
<g>
</g>
<g>
</g>
<g>
</g>
<g>
</g>
<g>
</g>
<g>
</g>
<g>
</g>
<g>
</g>
<g>
</g>
<g>
</g>
</svg>
