<?xml version="1.0" encoding="iso-8859-1"?>
<!-- Generator: Adobe Illustrator 18.0.0, SVG Export Plug-In . SVG Version: 6.00 Build 0)  -->
<!DOCTYPE svg PUBLIC "-//W3C//DTD SVG 1.1//EN" "http://www.w3.org/Graphics/SVG/1.1/DTD/svg11.dtd">
<svg xmlns="http://www.w3.org/2000/svg" xmlns:xlink="http://www.w3.org/1999/xlink" version="1.1" id="Capa_1" x="0px" y="0px" viewBox="0 0 297.07 297.07" style="enable-background:new 0 0 297.07 297.07;" xml:space="preserve" width="512px" height="512px">
<path id="XMLID_52_" d="M234.397,164.938v-50.581l44.627,44.628c1.91,1.91,4.413,2.864,6.913,2.864c2.505,0,5.007-0.954,6.916-2.864  c3.82-3.821,3.82-10.01,0-13.829l-58.456-58.744V46.913C234.397,21.045,213.066,0,187.192,0h-77.314  C84.004,0,62.673,21.045,62.673,46.913v39.498L4.216,145.155c-3.819,3.819-3.819,10.008,0,13.829c1.91,1.91,4.412,2.864,6.915,2.864  c2.502,0,5.004-0.954,6.915-2.864l44.627-44.628v50.581L4.216,223.395c-3.819,3.82-3.819,10.008,0,13.829  c1.91,1.91,4.412,2.865,6.915,2.865c2.502,0,5.004-0.955,6.915-2.865l44.627-44.627v57.56c0,25.869,21.331,46.914,47.204,46.914  h77.314c25.874,0,47.205-21.045,47.205-46.914v-57.56l44.627,44.627c1.91,1.91,4.413,2.865,6.913,2.865  c2.505,0,5.007-0.955,6.916-2.865c3.82-3.821,3.82-10.009,0-13.829L234.397,164.938z M109.878,19.559h77.314  c15.086,0,27.358,12.273,27.358,27.355v21.708c-5.097-2.672-10.808-4.329-16.948-4.329H99.467c-6.141,0-11.853,1.657-16.948,4.329  V46.913C82.519,31.832,94.793,19.559,109.878,19.559z M187.192,277.51h-77.314c-15.085,0-27.358-12.272-27.358-27.354v-2.153  c5.096,2.674,10.808,4.331,16.948,4.331h98.135c6.141,0,11.852-1.657,16.948-4.331v2.153  C214.55,265.237,202.278,277.51,187.192,277.51z" fill="#0049A3"/>
<g>
</g>
<g>
</g>
<g>
</g>
<g>
</g>
<g>
</g>
<g>
</g>
<g>
</g>
<g>
</g>
<g>
</g>
<g>
</g>
<g>
</g>
<g>
</g>
<g>
</g>
<g>
</g>
<g>
</g>
</svg>
