<?xml version="1.0" encoding="iso-8859-1"?>
<!-- Generator: Adobe Illustrator 18.0.0, SVG Export Plug-In . SVG Version: 6.00 Build 0)  -->
<!DOCTYPE svg PUBLIC "-//W3C//DTD SVG 1.1//EN" "http://www.w3.org/Graphics/SVG/1.1/DTD/svg11.dtd">
<svg xmlns="http://www.w3.org/2000/svg" xmlns:xlink="http://www.w3.org/1999/xlink" version="1.1" id="Capa_1" x="0px" y="0px" viewBox="0 0 296.475 296.475" style="enable-background:new 0 0 296.475 296.475;" xml:space="preserve" width="512px" height="512px">
<g id="XMLID_110_">
	<path id="XMLID_117_" d="M200.13,51.891h-49.184c-28.6,0-43.565,48.469-43.565,96.347s14.966,96.346,43.565,96.346h49.184   c53.124,0,96.345-43.223,96.345-96.346C296.475,95.114,253.254,51.891,200.13,51.891z" fill="#0049A3"/>
	<path id="XMLID_116_" d="M25.44,138.063H10.176C4.557,138.063,0,142.619,0,148.238c0,5.619,4.557,10.176,10.176,10.176H25.44   c5.619,0,10.176-4.557,10.176-10.176C35.615,142.619,31.059,138.063,25.44,138.063z" fill="#0049A3"/>
	<path id="XMLID_115_" d="M79.711,138.063H64.448c-5.62,0-10.176,4.556-10.176,10.175c0,5.619,4.556,10.176,10.176,10.176h15.263   c5.62,0,10.177-4.557,10.177-10.176C89.888,142.619,85.331,138.063,79.711,138.063z" fill="#0049A3"/>
	<path id="XMLID_114_" d="M23.805,207.19l-15.105,2.211c-5.56,0.809-9.404,5.977-8.59,11.541c0.739,5.059,5.088,8.7,10.051,8.7   c0.492,0,0.989-0.034,1.491-0.107l15.104-2.212c5.56-0.81,9.405-5.978,8.592-11.542C34.531,210.226,29.35,206.384,23.805,207.19z" fill="#0049A3"/>
	<path id="XMLID_113_" d="M78.236,199.225l-15.105,2.211c-5.56,0.81-9.405,5.977-8.591,11.542c0.74,5.058,5.088,8.7,10.051,8.7   c0.492,0,0.99-0.035,1.491-0.109l15.105-2.21c5.56-0.811,9.404-5.979,8.59-11.543C88.968,202.255,83.796,198.396,78.236,199.225z" fill="#0049A3"/>
	<path id="XMLID_112_" d="M8.699,87.075l15.105,2.21c0.502,0.075,0.999,0.11,1.49,0.11c4.964,0,9.311-3.643,10.053-8.701   c0.814-5.564-3.032-10.73-8.592-11.542l-15.104-2.211c-5.56-0.809-10.727,3.032-11.542,8.591   C-0.705,81.097,3.14,86.264,8.699,87.075z" fill="#0049A3"/>
	<path id="XMLID_111_" d="M63.131,95.039l15.105,2.211c0.501,0.075,0.999,0.11,1.489,0.11c4.964,0,9.311-3.642,10.052-8.701   c0.814-5.564-3.03-10.732-8.59-11.543l-15.105-2.21c-5.546-0.84-10.727,3.031-11.542,8.591   C53.726,89.062,57.571,94.228,63.131,95.039z" fill="#0049A3"/>
</g>
<g>
</g>
<g>
</g>
<g>
</g>
<g>
</g>
<g>
</g>
<g>
</g>
<g>
</g>
<g>
</g>
<g>
</g>
<g>
</g>
<g>
</g>
<g>
</g>
<g>
</g>
<g>
</g>
<g>
</g>
</svg>
