<?xml version="1.0" encoding="iso-8859-1"?>
<!-- Generator: Adobe Illustrator 18.0.0, SVG Export Plug-In . SVG Version: 6.00 Build 0)  -->
<!DOCTYPE svg PUBLIC "-//W3C//DTD SVG 1.1//EN" "http://www.w3.org/Graphics/SVG/1.1/DTD/svg11.dtd">
<svg xmlns="http://www.w3.org/2000/svg" xmlns:xlink="http://www.w3.org/1999/xlink" version="1.1" id="Capa_1" x="0px" y="0px" viewBox="0 0 294.92 294.92" style="enable-background:new 0 0 294.92 294.92;" xml:space="preserve" width="512px" height="512px">
<g>
	<path d="M166.175,129.174c0-6.111-4.676-9.353-12.955-9.353c-3.955,0-6.23,0.244-7.791,0.483v18.822h5.994   C161.02,139.127,166.175,135.168,166.175,129.174z" fill="#0049A3"/>
	<path d="M151.667,152.194h-6.238v22.782c1.797,0.239,3.954,0.239,7.079,0.239c8.268,0,15.581-3.115,15.581-11.627   C168.089,155.437,160.776,152.194,151.667,152.194z" fill="#0049A3"/>
	<path d="M79.833,124.78c-0.118-0.454-0.518-0.77-0.988-0.77c-0.468,0-0.877,0.316-0.984,0.77c-0.89,3.598-2.178,8.748-2.979,11.588   l-4.794,17.15h17.868l-5.038-17.15C81.863,132.84,80.798,128.656,79.833,124.78z" fill="#0049A3"/>
	<path d="M147.46,0C66.154,0,0.001,66.148,0.001,147.46S66.154,294.92,147.46,294.92c81.307,0,147.46-66.149,147.46-147.46   S228.766,0,147.46,0z M111.327,184.12c-1.768,2.391-4.569,3.808-7.537,3.808c-4.128,0-7.771-2.71-8.961-6.664l-4.238-14.078H67.453   l-3.857,13.889c-1.123,4.052-4.813,6.854-9.021,6.854c-2.774,0-5.38-1.313-7.029-3.543c-1.652-2.232-2.148-5.112-1.338-7.763   l18.675-61.111c1.524-4.989,6.133-8.396,11.346-8.396h6.463c5.194,0,9.783,3.383,11.325,8.348l18.716,60.329   C113.611,178.634,113.086,181.723,111.327,184.12z M178.876,181.455c-5.866,4.677-15.698,7.312-31.768,7.312   c-6.639,0-12.038-0.328-16.05-0.742c-2.119-0.22-3.73-2.001-3.73-4.14v-72.134c0-2.093,1.564-3.865,3.633-4.13   c5.232-0.657,12.8-1.106,19.983-1.106c11.15,0,17.984,1.078,23.862,4.555c5.633,3.002,9.713,8.513,9.713,15.831   c0,7.188-4.197,13.906-13.315,17.264v0.239c9.235,2.521,16.069,9.471,16.069,19.903   C187.273,171.624,183.915,177.373,178.876,181.455z M219.57,189.128c-5.722,0-11.385-0.923-15.953-2.217   c-3.975-1.127-6.337-5.193-5.351-9.196l0.118-0.492c0.476-1.942,1.737-3.603,3.484-4.583c1.748-0.988,3.817-1.211,5.73-0.611   c3.934,1.235,8.446,2.109,13.044,2.109c8.396,0,12.837-3.476,12.837-8.753c0-5.033-3.837-7.913-13.55-11.389   c-13.435-4.677-22.182-12.11-22.182-23.861c0-13.789,11.511-24.338,30.568-24.338c5.379,0,9.928,0.668,13.736,1.658   c1.864,0.484,3.445,1.694,4.412,3.359c0.957,1.665,1.211,3.647,0.693,5.501l-0.126,0.469c-1.095,3.959-5.165,6.302-9.139,5.263   c-2.773-0.731-6.103-1.265-9.93-1.265c-7.918,0-11.753,3.598-11.753,7.796c0,5.156,4.559,7.43,14.985,11.388   c14.273,5.277,20.98,12.712,20.98,24.1C252.177,177.618,241.75,189.128,219.57,189.128z" fill="#0049A3"/>
</g>
<g>
</g>
<g>
</g>
<g>
</g>
<g>
</g>
<g>
</g>
<g>
</g>
<g>
</g>
<g>
</g>
<g>
</g>
<g>
</g>
<g>
</g>
<g>
</g>
<g>
</g>
<g>
</g>
<g>
</g>
</svg>
