<?xml version="1.0" encoding="iso-8859-1"?>
<!-- Generator: Adobe Illustrator 17.1.0, SVG Export Plug-In . SVG Version: 6.00 Build 0)  -->
<!DOCTYPE svg PUBLIC "-//W3C//DTD SVG 1.1//EN" "http://www.w3.org/Graphics/SVG/1.1/DTD/svg11.dtd">
<svg xmlns="http://www.w3.org/2000/svg" xmlns:xlink="http://www.w3.org/1999/xlink" version="1.1" id="Capa_1" x="0px" y="0px" viewBox="0 0 350.428 350.428" style="enable-background:new 0 0 350.428 350.428;" xml:space="preserve" width="512px" height="512px">
<path d="M294.493,74.93h-24.911V50.554c0-23.366-19.01-42.376-42.376-42.376H123.222c-23.366,0-42.376,19.01-42.376,42.376V74.93  H55.935C25.092,74.93,0,100.021,0,130.864v155.451c0,30.843,25.092,55.935,55.935,55.935h238.559  c30.843,0,55.935-25.092,55.935-55.935V130.864C350.428,100.021,325.336,74.93,294.493,74.93z M98.846,50.554  c0-13.441,10.935-24.376,24.376-24.376h103.984c13.441,0,24.376,10.935,24.376,24.376V74.93H98.846V50.554z M332.428,286.315  c0,20.917-17.018,37.935-37.935,37.935H55.935C35.018,324.25,18,307.232,18,286.315V130.864c0-20.917,17.018-37.935,37.935-37.935  h238.559c20.917,0,37.935,17.018,37.935,37.935V286.315z M235.09,174.505h-25.792v-25.79c0-10.206-8.303-18.509-18.509-18.509  h-31.15c-10.206,0-18.509,8.303-18.509,18.509v25.79h-25.792c-10.206,0-18.509,8.304-18.509,18.51v31.15  c0,10.206,8.303,18.51,18.509,18.51h25.792v25.79c0,10.205,8.303,18.508,18.509,18.508h31.15c10.206,0,18.509-8.303,18.509-18.508  v-25.79h25.792c10.204,0,18.505-8.304,18.505-18.51v-31.15C253.595,182.809,245.294,174.505,235.09,174.505z M235.595,224.165  c0,0.262-0.245,0.51-0.505,0.51h-34.792c-4.971,0-9,4.029-9,9v34.79c0,0.261-0.247,0.508-0.509,0.508h-31.15  c-0.262,0-0.509-0.247-0.509-0.508v-34.79c0-4.971-4.029-9-9-9h-34.792c-0.257,0-0.509-0.253-0.509-0.51v-31.15  c0-0.262,0.247-0.51,0.509-0.51h34.792c4.971,0,9-4.029,9-9v-34.79c0-0.257,0.252-0.509,0.509-0.509h31.15  c0.262,0,0.509,0.247,0.509,0.509v34.79c0,4.971,4.029,9,9,9h34.792c0.26,0,0.505,0.248,0.505,0.51V224.165z" fill="#0049A3"/>
<g>
</g>
<g>
</g>
<g>
</g>
<g>
</g>
<g>
</g>
<g>
</g>
<g>
</g>
<g>
</g>
<g>
</g>
<g>
</g>
<g>
</g>
<g>
</g>
<g>
</g>
<g>
</g>
<g>
</g>
</svg>
