<?xml version="1.0" encoding="iso-8859-1"?>
<!-- Generator: Adobe Illustrator 18.1.1, SVG Export Plug-In . SVG Version: 6.00 Build 0)  -->
<svg xmlns="http://www.w3.org/2000/svg" xmlns:xlink="http://www.w3.org/1999/xlink" version="1.1" id="Capa_1" x="0px" y="0px" viewBox="0 0 299.785 299.785" style="enable-background:new 0 0 299.785 299.785;" xml:space="preserve" width="512px" height="512px">
<g>
	<g>
		<path d="M287.068,29.132H238.34V10.062h-48.729v19.069h-79.448V10.062H61.434v19.069H12.706    C5.684,29.132,0,34.826,0,41.843v235.169c0,7.016,5.684,12.711,12.706,12.711h274.363c7.022,0,12.716-5.695,12.716-12.711V41.843    C299.785,34.826,294.09,29.132,287.068,29.132z M274.363,264.295H25.422V54.554h248.946v209.741H274.363z" fill="#0049A3"/>
		<path d="M61.434,119.175h15.893v15.888c0,4.683,3.791,8.48,8.48,8.48s8.479-3.791,8.479-8.479v-15.888    h15.882c4.683,0,8.479-3.791,8.479-8.48s-3.791-8.474-8.479-8.474H94.286V86.329c0-4.683-3.791-8.474-8.479-8.474    s-8.479,3.786-8.479,8.474v15.893H61.434c-4.672,0-8.469,3.786-8.469,8.474S56.757,119.175,61.434,119.175z" fill="#0049A3"/>
		<path d="M189.611,119.175h48.729c4.683,0,8.479-3.791,8.479-8.479s-3.791-8.474-8.479-8.474h-48.729    c-4.672,0-8.469,3.786-8.469,8.474S184.939,119.175,189.611,119.175z" fill="#0049A3"/>
	</g>
</g>
<g>
</g>
<g>
</g>
<g>
</g>
<g>
</g>
<g>
</g>
<g>
</g>
<g>
</g>
<g>
</g>
<g>
</g>
<g>
</g>
<g>
</g>
<g>
</g>
<g>
</g>
<g>
</g>
<g>
</g>
</svg>
