<?xml version="1.0" encoding="iso-8859-1"?>
<!-- Generator: Adobe Illustrator 18.1.1, SVG Export Plug-In . SVG Version: 6.00 Build 0)  -->
<svg xmlns="http://www.w3.org/2000/svg" xmlns:xlink="http://www.w3.org/1999/xlink" version="1.1" id="Capa_1" x="0px" y="0px" viewBox="0 0 179.008 179.008" style="enable-background:new 0 0 179.008 179.008;" xml:space="preserve" width="512px" height="512px">
<g>
	<path d="M119.212,39.152c1.092-2.93,4.35-4.433,7.262-3.341l48.833,18.014   c2.93,1.08,4.427,4.332,3.353,7.256c-0.853,2.279-3.007,3.699-5.311,3.699c-0.644,0-1.313-0.113-1.951-0.358l-48.833-18.014   C119.636,45.328,118.144,42.076,119.212,39.152z M65.51,25.727C27.65,33.508,0,57.829,0,86.673   c0,28.838,27.656,53.165,65.51,60.946V25.727z M175.301,99.388l-48.827-18.014c-2.912-1.086-6.176,0.412-7.262,3.347   c-1.08,2.93,0.412,6.176,3.353,7.256l48.839,18.014c0.632,0.245,1.295,0.358,1.945,0.358c2.297,0,4.457-1.414,5.305-3.699   C179.728,103.714,178.23,100.462,175.301,99.388z M91.448,39.254V23.096c-6.987,0-13.76,0.597-20.287,1.623v123.908   c6.534,1.032,13.3,1.623,20.287,1.623v-16.164c9.434-1.516,16.91-22.131,16.91-47.419C108.358,61.391,100.882,40.769,91.448,39.254   z M175.301,144.951l-48.827-18.02c-2.912-1.086-6.176,0.412-7.262,3.353c-1.08,2.93,0.412,6.176,3.353,7.256l48.839,18.02   c0.632,0.233,1.295,0.352,1.945,0.352c2.297,0,4.457-1.408,5.305-3.699C179.728,149.289,178.23,146.037,175.301,144.951z" fill="#0049A3"/>
</g>
<g>
</g>
<g>
</g>
<g>
</g>
<g>
</g>
<g>
</g>
<g>
</g>
<g>
</g>
<g>
</g>
<g>
</g>
<g>
</g>
<g>
</g>
<g>
</g>
<g>
</g>
<g>
</g>
<g>
</g>
</svg>
