<?xml version="1.0" encoding="iso-8859-1"?>
<!-- Generator: Adobe Illustrator 17.1.0, SVG Export Plug-In . SVG Version: 6.00 Build 0)  -->
<!DOCTYPE svg PUBLIC "-//W3C//DTD SVG 1.1//EN" "http://www.w3.org/Graphics/SVG/1.1/DTD/svg11.dtd">
<svg xmlns="http://www.w3.org/2000/svg" xmlns:xlink="http://www.w3.org/1999/xlink" version="1.1" id="Capa_1" x="0px" y="0px" viewBox="0 0 268.612 268.612" style="enable-background:new 0 0 268.612 268.612;" xml:space="preserve" width="512px" height="512px">
<g>
	<path d="M191.635,142.387c0.021,0.001,0.046,0.002,0.073,0.002h17.326c0.482,0,0.875-0.393,0.875-0.875v-25.457l-18.234,26.269   C191.66,142.348,191.646,142.369,191.635,142.387z" fill="#0049A3"/>
	<path d="M46.987,142.387c0.021,0.001,0.046,0.002,0.073,0.002h17.327c0.482,0,0.875-0.393,0.875-0.875v-25.457l-18.235,26.269   C47.011,142.348,46.998,142.369,46.987,142.387z" fill="#0049A3"/>
	<path d="M254.473,51.762H14.138C6.342,51.762,0,58.105,0,65.901V202.71c0,7.798,6.342,14.141,14.138,14.141h240.335   c7.796,0,14.139-6.343,14.139-14.141V65.901C268.612,58.105,262.27,51.762,254.473,51.762z M93.774,154.893   c0,1.447-1.178,2.625-2.625,2.625H83.75c-0.482,0-0.875,0.393-0.875,0.875v14.416c0,1.447-1.178,2.625-2.625,2.625H67.887   c-1.447,0-2.625-1.178-2.625-2.625v-14.416c0-0.482-0.393-0.875-0.875-0.875H32.815c-1.447,0-2.625-1.178-2.625-2.625v-12.037   c0-1.139,0.52-2.756,1.184-3.682l31.736-44.21c0.73-1.018,2.227-1.786,3.481-1.786H80.25c1.447,0,2.625,1.178,2.625,2.625v45.711   c0,0.482,0.393,0.875,0.875,0.875h7.399c1.447,0,2.625,1.178,2.625,2.625V154.893z M160.515,174.55   c-0.323,0.562-0.955,0.884-1.736,0.884h-13.55c-1.275,0-2.746-0.88-3.349-2.003l-6.977-12.996   c-0.015-0.027-0.028-0.051-0.042-0.071c-0.013,0.02-0.026,0.045-0.04,0.072l-6.703,12.97c-0.588,1.138-2.051,2.028-3.331,2.028   h-13.659c-0.778,0-1.412-0.321-1.739-0.882c-0.327-0.561-0.294-1.271,0.089-1.947l15.435-27.279   c0.321-0.568,0.313-1.598-0.017-2.16l-14.741-25.145c-0.395-0.674-0.437-1.382-0.115-1.943c0.321-0.562,0.954-0.884,1.735-0.884   h14.09c1.284,0,2.742,0.898,3.319,2.045l5.546,11.01c0.004,0.008,0.008,0.016,0.012,0.023c0.004-0.008,0.008-0.015,0.012-0.023   l5.637-11.021c0.583-1.141,2.044-2.034,3.326-2.034h13.766c0.78,0,1.413,0.322,1.736,0.883c0.323,0.562,0.282,1.271-0.11,1.945   l-14.641,25.139c-0.327,0.561-0.327,1.582,0.001,2.143l15.933,27.303C160.796,173.28,160.837,173.989,160.515,174.55z    M238.422,154.893c0,1.447-1.178,2.625-2.625,2.625h-7.399c-0.482,0-0.875,0.393-0.875,0.875v14.416   c0,1.447-1.178,2.625-2.625,2.625h-12.364c-1.447,0-2.625-1.178-2.625-2.625v-14.416c0-0.482-0.393-0.875-0.875-0.875h-31.571   c-1.447,0-2.625-1.178-2.625-2.625v-12.037c0-1.139,0.52-2.756,1.185-3.682l31.735-44.21c0.73-1.018,2.227-1.786,3.482-1.786   h13.659c1.447,0,2.625,1.178,2.625,2.625v45.711c0,0.482,0.393,0.875,0.875,0.875h7.399c1.447,0,2.625,1.178,2.625,2.625V154.893z" fill="#0049A3"/>
</g>
<g>
</g>
<g>
</g>
<g>
</g>
<g>
</g>
<g>
</g>
<g>
</g>
<g>
</g>
<g>
</g>
<g>
</g>
<g>
</g>
<g>
</g>
<g>
</g>
<g>
</g>
<g>
</g>
<g>
</g>
</svg>
