<?xml version="1.0" encoding="iso-8859-1"?>
<!-- Generator: Adobe Illustrator 18.0.0, SVG Export Plug-In . SVG Version: 6.00 Build 0)  -->
<!DOCTYPE svg PUBLIC "-//W3C//DTD SVG 1.1//EN" "http://www.w3.org/Graphics/SVG/1.1/DTD/svg11.dtd">
<svg xmlns="http://www.w3.org/2000/svg" xmlns:xlink="http://www.w3.org/1999/xlink" version="1.1" id="Capa_1" x="0px" y="0px" viewBox="0 0 296.767 296.767" style="enable-background:new 0 0 296.767 296.767;" xml:space="preserve" width="512px" height="512px">
<path id="XMLID_80_" d="M286.869,46.691c-25.343,0-47.992,15.979-68.937,48.697c-40.975-64.032-96.971-65.83-139.096,0  C57.89,62.67,35.243,46.691,9.898,46.691C4.428,46.691,0,51.124,0,56.59c0,5.466,4.428,9.897,9.898,9.897  c19.989,0,38.798,15.938,57.436,48.273c-10.604,17.823-37.649,65.347-37.649,86.167c0,27.105,22.049,49.151,49.151,49.151  c27.104,0,49.162-22.047,49.162-49.151c0-20.82-27.066-68.357-37.659-86.178c37.166-64.511,78.924-64.526,116.099,0.011  c-10.594,17.828-37.639,65.352-37.639,86.167c0,27.105,22.048,49.151,49.142,49.151c27.104,0,49.162-22.047,49.162-49.151  c0-20.82-27.064-68.357-37.659-86.178c18.626-32.328,37.446-48.263,57.426-48.263c5.472,0,9.898-4.432,9.898-9.897  C296.767,51.124,292.341,46.691,286.869,46.691z M78.836,230.283c-16.19,0-29.355-13.168-29.355-29.355  c0-10.807,15.214-41.65,29.355-66.559c14.151,24.909,29.365,55.753,29.365,66.559C108.201,217.115,95.028,230.283,78.836,230.283z   M217.94,230.283c-16.182,0-29.346-13.168-29.346-29.355c0-10.807,15.205-41.646,29.346-66.555  c14.15,24.908,29.366,55.748,29.366,66.555C247.307,217.115,234.131,230.283,217.94,230.283z" fill="#0049A3"/>
<g>
</g>
<g>
</g>
<g>
</g>
<g>
</g>
<g>
</g>
<g>
</g>
<g>
</g>
<g>
</g>
<g>
</g>
<g>
</g>
<g>
</g>
<g>
</g>
<g>
</g>
<g>
</g>
<g>
</g>
</svg>
